# xmcd CD database file
#
# Track frame offsets:
#	150
#	15060
#	28255
#	43067
#	56211
#	71138
#	84788
#	96624
#	110131
#	124448
#	138294
#	151189
#	163292
#	176849
#	190504
#	203035
#	218187
#	229011
#	240375
#	253987
#
# Disc length: 3563 seconds
#
# Revision: 1
# Processed by: cddbd v1.5.2PL0 Copyright (c) Steve Scherf et al.
# Submitted via: CDex 1.51
#
DISCID=200de914
DTITLE=Various Artist - Jazz and Blues  {CD 2-3]
DYEAR=2011
DGENRE=Jazz
TTITLE0=Fever - PEGGY LEE  . . . . . . .  { Jazz }
TTITLE1=Cry Me A River - JULIE LONDON
TTITLE2=Black Coffee - SARAH VAUGHAN
TTITLE3=It Ain't Necassarily So - ARETHA FRANKLIN
TTITLE4=Sentimental Journey - ELLA FITZGERALD
TTITLE5=My Baby Just Cares For Me - NINA SIMONE
TTITLE6=Sing Sing Sing - THE ANDREW SISTERS
TTITLE7=Mad About The Boy - DINAH WASHINGTON
TTITLE8=Strange Fruit - BILLIE HOLIDAY
TTITLE9=Frankie and Johnny - PEARL BAILEY
TTITLE10=Hound Dog - WILLIE MAE ''BIG MAMA'' THOMTON  . . . . . . .  { Blues }
TTITLE11=The Blues Ain't Nothin' But - GEORGIA WHITE
TTITLE12=Why Don't You Do Right - LIL GREEN
TTITLE13=Little Rock Blues - PEARL DICKSON
TTITLE14=Me And My Chauffeur - MEMPHIS MENNIE
TTITLE15=Black Eye Blues - MA RAINEY
TTITLE16=How Long Daddy - ROSETTA HOWARD and HARLEM HAMFATS
TTITLE17=They Raided The Joint - HELEN HUMES
TTITLE18=Arkansas Blues - MILDRED BAILEY
TTITLE19=Nobody Knows When You're Down And Out - BESSIE SMITH
EXTD=YEAR: 2011
EXTT0=
EXTT1=
EXTT2=
EXTT3=
EXTT4=
EXTT5=
EXTT6=
EXTT7=
EXTT8=
EXTT9=
EXTT10=
EXTT11=
EXTT12=
EXTT13=
EXTT14=
EXTT15=
EXTT16=
EXTT17=
EXTT18=
EXTT19=
PLAYORDER=
